<?xml version="1.0" encoding="utf-8"?>
<!-- Generator: Adobe Illustrator 15.0.0, SVG Export Plug-In . SVG Version: 6.00 Build 0)  -->
<!DOCTYPE svg PUBLIC "-//W3C//DTD SVG 1.0//EN" "http://www.w3.org/TR/2001/REC-SVG-20010904/DTD/svg10.dtd">
<svg version="1.0" id="Layer_1" xmlns="http://www.w3.org/2000/svg" xmlns:xlink="http://www.w3.org/1999/xlink" x="0px" y="0px"
	 width="128px" height="128px" viewBox="0 0 128 128" enable-background="new 0 0 128 128" xml:space="preserve">
<g>
	<path fill="#808080" d="M58.838,82.594c2.833-20.175,17.333-36.597,36.468-42.22c-3.526-0.759-7.185-1.167-10.932-1.167
		c-16.787,0-31.699,8.033-41.108,20.457c-6.541,8.635-10.427,19.4-10.427,31.073c0,9.337,2.48,18.082,6.814,25.629
		c2.54,1.416,5.196,2.65,7.943,3.695c-0.159-1.663-0.244-3.336-0.244-5.041C47.353,102.729,51.659,91.449,58.838,82.594z"/>
	<path fill="#DEDEDE" d="M32.84,90.736c0-8.14,1.936-16.237,5.653-23.48c0.901-1.754,1.901-3.458,2.998-5.097
		c0.523-0.784,1.069-1.553,1.634-2.308c0.471-0.628,0.569-1.78,0.802-2.539c0.983-3.203,2.281-6.308,3.869-9.258
		C54.111,36.321,64.97,27.299,77.685,23.29c12.967-4.089,27.376-2.832,39.419,3.493C106.736,13.21,90.68,4.412,73.623,3.184
		C60.061,2.208,46.437,5.744,35.164,13.38c-10.604,7.181-18.798,17.714-23.104,29.779c-4.688,13.134-4.656,27.804,0.091,40.918
		C16.94,97.31,26.41,108.64,38.556,115.739c0.363,0.213,0.729,0.421,1.098,0.626C35.19,108.593,32.84,99.698,32.84,90.736
		C32.84,79.063,32.84,100.073,32.84,90.736z"/>
	<path fill="#121212" d="M89.096,64.425c-12.14,2.337-22.764,8.932-30.257,18.169c-7.18,8.855-11.485,20.135-11.485,32.426
		c0,1.705,0.085,3.378,0.244,5.041c6.667,2.529,13.889,3.914,21.439,3.914c0.188,0,0.364-0.007,0.541-0.007
		c0.556-0.005,1.108-0.015,1.663-0.038c0.325-0.013,0.656-0.02,0.985-0.041c0.101,0,0.198-0.01,0.3-0.016
		c0.428-0.024,0.86-0.055,1.288-0.084c0.067-0.005,0.141-0.016,0.212-0.021c0.456-0.037,0.914-0.08,1.371-0.121
		c0.044-0.008,0.082-0.016,0.129-0.02c0.481-0.052,0.968-0.106,1.451-0.172c0.015-0.004,0.026-0.004,0.045-0.004
		c1.547-0.204,3.077-0.473,4.584-0.788c-4.937-1.132-9.598-2.981-13.882-5.426c-0.673-3.323-1.034-6.77-1.034-10.3
		C66.689,89.288,75.566,73.711,89.096,64.425z"/>
</g>
</svg>
