<?xml version="1.0" encoding="utf-8"?>
<!-- Generator: Adobe Illustrator 15.0.0, SVG Export Plug-In . SVG Version: 6.00 Build 0)  -->
<!DOCTYPE svg PUBLIC "-//W3C//DTD SVG 1.0//EN" "http://www.w3.org/TR/2001/REC-SVG-20010904/DTD/svg10.dtd">
<svg version="1.0" id="Layer_2" xmlns="http://www.w3.org/2000/svg" xmlns:xlink="http://www.w3.org/1999/xlink" x="0px" y="0px"
	 width="530px" height="247px" viewBox="0 0 530 247" enable-background="new 0 0 530 247" xml:space="preserve">
<g>
	<path fill="#608499" d="M112.893,145.448c3.786-26.942,23.15-48.874,48.705-56.382c-4.713-1.014-9.594-1.559-14.602-1.559
		c-22.418,0-42.328,10.728-54.895,27.318c-8.737,11.532-13.928,25.908-13.928,41.496c0,12.469,3.313,24.147,9.102,34.227
		c3.393,1.89,6.938,3.539,10.608,4.934c-0.215-2.221-0.328-4.455-0.328-6.73C97.556,172.338,103.307,157.274,112.893,145.448z"/>
	<path fill="#BDD4DE" d="M78.174,156.321c0-7.562,1.237-15.114,3.688-22.27c1.241-3.63,2.791-7.155,4.623-10.527
		c1.646-3.023,4.971-6.33,5.847-9.571c3.373-12.531,10.358-23.977,19.914-32.754c21.107-19.386,53.033-23.638,78.459-10.283
		c-18.027-23.61-48.278-35.521-77.553-30.646c-28.398,4.728-52.7,24.981-62.547,52.023c-13.427,36.856,2.425,79.188,36.671,98.255
		C81.313,180.167,78.174,168.289,78.174,156.321C78.174,140.733,78.174,168.79,78.174,156.321z"/>
	<path fill="#3C515C" d="M153.301,121.184c-16.21,3.122-30.398,11.929-40.408,24.264c-9.586,11.826-15.337,26.89-15.337,43.303
		c0,2.275,0.113,4.51,0.328,6.73c8.902,3.379,18.547,5.228,28.628,5.228c0.253,0,0.488-0.011,0.725-0.011
		c0.743-0.004,1.48-0.019,2.22-0.05c0.435-0.016,0.876-0.025,1.317-0.055c0.135,0,0.264-0.011,0.4-0.02
		c0.572-0.032,1.149-0.073,1.719-0.112c0.092-0.006,0.188-0.021,0.284-0.026c0.61-0.051,1.221-0.107,1.833-0.163
		c0.056-0.011,0.106-0.021,0.169-0.025c0.643-0.071,1.291-0.143,1.94-0.23c0.02-0.005,0.034-0.005,0.058-0.005
		c2.065-0.274,4.109-0.631,6.122-1.053c-6.592-1.512-12.819-3.981-18.538-7.246c-0.9-4.439-1.379-9.041-1.379-13.755
		C123.382,154.387,135.236,133.585,153.301,121.184z"/>
</g>
<g>
	<path fill="#F4F4F4" d="M179.922,105.104c4.019,0,19.939,0,19.939,13.139v5.564h31.533c0,0-0.154,15.148-11.438,15.148h-20.095
		v31.069c0,10.356,2.938,16.385,14.685,16.385c8.965,0,18.239-3.864,18.239-16.23c4.174,4.637,6.492,8.965,6.492,13.757
		c0,9.429-8.965,17.621-27.514,17.621c-20.249,0-31.842-10.047-31.842-27.205V105.104z"/>
	<path fill="#F4F4F4" d="M248.549,119.015c1.236,0,20.094,0.155,20.094,10.047v71.721c0,0-20.094,0-20.094-10.047V119.015z
		 M249.013,90.419h13.602c2.474,0,5.72,2.319,5.72,4.483v12.829h-13.603c-3.246,0-5.719-2.318-5.719-4.482V90.419z"/>
	<path fill="#F4F4F4" d="M335.262,81.917c1.392,0,20.095-0.154,20.095,11.593v108.045c-4.019-2.01-8.192-2.628-12.366-2.628
		c-8.192,0-16.075,2.628-22.567,2.628c-22.104,0-34.778-9.738-34.778-26.896v-29.678c0-16.694,14.375-26.741,30.914-26.741
		c12.83,0,19.94,6.028,19.94,6.028s-1.237-5.101-1.237-8.965V81.917z M335.262,145.756c0-7.574-8.347-12.83-16.693-12.83
		c-7.42,0-12.829,4.328-12.829,14.375v25.041c0,9.738,3.709,14.53,16.539,14.53c6.955,0,12.983-1.854,12.983-1.854V145.756z"/>
	<path fill="#F4F4F4" d="M372.355,174.352v-28.905c0-17.003,12.057-27.205,34.16-27.205s32.615,10.202,32.615,25.659
		c0,13.139-7.729,25.35-32.151,25.35c-4.946,0-9.893-0.927-14.529-2.782v5.564c0,9.274,5.564,14.066,17.157,14.066
		c15.303,0,25.659-6.492,25.813-15.766c3.246,4.637,4.792,8.811,4.792,12.675c0,11.129-12.83,18.549-30.605,18.549
		C386.112,201.556,372.355,191.354,372.355,174.352z M392.45,152.248c1.545,0.309,6.955,1.391,11.593,1.391
		c11.129,0,14.993-3.555,14.993-9.738c0-6.492-3.555-10.975-13.139-10.975c-10.511,0-13.447,5.41-13.447,14.839V152.248z"/>
</g>
<g>
	<path fill="#F15623" d="M389.326,97.171c6.069,0,9.292-2.847,9.292-7.144c0-11.279-23.848-2.524-23.848-16.973
		c0-8.271,6.392-10.796,14.287-10.796c6.392,0,12.998,1.074,12.998,6.177c0,1.182-0.376,2.632-1.235,4.351
		c0-5.64-5.693-6.553-11.763-6.553c-5.801,0-9.561,1.611-9.561,6.338c0,10.151,23.848,1.128,23.848,17.188
		c0,7.573-6.123,11.387-14.019,11.387c-6.392,0-13.75-1.074-13.75-6.23c0-1.182,0.376-2.632,1.235-4.297
		C376.812,96.258,383.257,97.171,389.326,97.171z"/>
	<path fill="#F15623" d="M414.729,100.501c-0.43,0-4.404-0.107-4.404-2.686V62.904h14.233c7.896,0,15.361,2.686,15.361,12.407
		v12.783c0,9.722-7.466,12.407-15.361,12.407H414.729z M414.837,66.61v30.186h9.722c6.069,0,10.85-2.256,10.85-9.238V75.794
		c0-6.982-4.78-9.185-10.85-9.185H414.837z"/>
	<path fill="#F15623" d="M452.486,101.039c0,0-4.512,0-4.512-2.686V62.367c0,0,4.512,0,4.512,2.686v13.535
		c7.412-0.591,10.903-5.103,15.415-13.267c1.396-2.578,3.491-3.062,4.995-3.062c0.913,0,1.558,0.161,1.558,0.161
		c-3.115,4.727-6.982,15.737-15.093,17.671c8.594,1.235,13.589,15.952,16.704,20.679c0,0-0.645,0.161-1.558,0.161
		c-1.504,0-4.082-0.483-5.479-3.062c-4.351-8.164-7.358-15.684-16.543-16.274V101.039z"/>
</g>
</svg>
