<?xml version="1.0" encoding="utf-8"?>
<!-- Generator: Adobe Illustrator 15.0.0, SVG Export Plug-In . SVG Version: 6.00 Build 0)  -->
<!DOCTYPE svg PUBLIC "-//W3C//DTD SVG 1.0//EN" "http://www.w3.org/TR/2001/REC-SVG-20010904/DTD/svg10.dtd">
<svg version="1.0" id="Layer_1" xmlns="http://www.w3.org/2000/svg" xmlns:xlink="http://www.w3.org/1999/xlink" x="0px" y="0px"
	 width="717px" height="247px" viewBox="0 0 717 247" enable-background="new 0 0 717 247" xml:space="preserve">
<g>
	<path fill="#808080" d="M112.701,146.032c3.765-26.819,23.042-48.65,48.478-56.125c-4.687-1.009-9.55-1.552-14.531-1.552
		c-22.315,0-42.139,10.678-54.646,27.194c-8.695,11.479-13.862,25.789-13.862,41.307c0,12.411,3.297,24.036,9.059,34.07
		c3.376,1.881,6.907,3.521,10.559,4.91c-0.211-2.21-0.325-4.435-0.325-6.699C97.433,172.799,103.157,157.805,112.701,146.032z"/>
	<path fill="#DEDEDE" d="M78.14,156.856c0-10.821,2.574-21.584,7.516-31.214c1.197-2.332,2.528-4.595,3.984-6.775
		c0.696-1.042,1.421-2.065,2.173-3.068c0.626-0.834,0.756-2.366,1.065-3.374c1.306-4.257,3.032-8.385,5.143-12.307
		c8.396-15.599,22.831-27.591,39.731-32.922c17.239-5.437,36.394-3.765,52.403,4.644c-13.782-18.042-35.127-29.739-57.802-31.371
		c-18.028-1.297-36.14,3.404-51.125,13.553C67.135,63.57,56.242,77.571,50.518,93.609c-6.232,17.46-6.189,36.961,0.121,54.394
		c6.366,17.591,18.955,32.652,35.101,42.091c0.483,0.282,0.97,0.56,1.46,0.833C81.265,180.593,78.14,168.77,78.14,156.856
		C78.14,141.339,78.14,169.268,78.14,156.856z"/>
	<path fill="#121212" d="M152.924,121.879c-16.138,3.107-30.261,11.874-40.223,24.153c-9.544,11.772-15.268,26.767-15.268,43.105
		c0,2.265,0.113,4.489,0.325,6.699c8.863,3.364,18.463,5.204,28.5,5.204c0.25,0,0.484-0.01,0.72-0.01
		c0.738-0.005,1.473-0.02,2.21-0.051c0.433-0.016,0.872-0.024,1.311-0.055c0.133,0,0.263-0.011,0.397-0.021
		c0.57-0.032,1.146-0.072,1.713-0.111c0.091-0.007,0.188-0.021,0.282-0.026c0.606-0.05,1.215-0.107,1.823-0.161
		c0.058-0.012,0.11-0.021,0.171-0.025c0.641-0.07,1.287-0.143,1.929-0.229c0.019-0.005,0.036-0.005,0.06-0.005
		c2.056-0.273,4.09-0.629,6.093-1.049c-6.562-1.505-12.758-3.963-18.453-7.213c-0.895-4.418-1.375-8.999-1.375-13.692
		C123.138,154.931,134.938,134.224,152.924,121.879z"/>
</g>
<g>
	<path fill="#060606" d="M179.423,105.872c4,0,19.849,0,19.849,13.079v5.539h31.389c0,0-0.154,15.079-11.386,15.079h-20.003v30.929
		c0,10.309,2.923,16.31,14.617,16.31c8.924,0,18.157-3.847,18.157-16.156c4.154,4.616,6.462,8.924,6.462,13.694
		c0,9.386-8.924,17.541-27.389,17.541c-20.157,0-31.697-10.002-31.697-27.081V105.872z"/>
	<path fill="#060606" d="M247.736,119.72c1.23,0,20.002,0.154,20.002,10.002v71.395c0,0-20.002,0-20.002-10.002V119.72z
		 M248.197,91.254h13.54c2.462,0,5.694,2.309,5.694,4.462v12.771h-13.541c-3.231,0-5.693-2.308-5.693-4.462V91.254z"/>
	<path fill="#060606" d="M334.055,82.791c1.385,0,20.003-0.154,20.003,11.541v107.554c-4.001-2-8.155-2.616-12.31-2.616
		c-8.155,0-16.003,2.616-22.465,2.616c-22.004,0-34.621-9.694-34.621-26.772v-29.544c0-16.617,14.311-26.619,30.774-26.619
		c12.771,0,19.849,6,19.849,6s-1.23-5.078-1.23-8.924V82.791z M334.055,146.34c0-7.541-8.31-12.771-16.618-12.771
		c-7.386,0-12.771,4.309-12.771,14.31v24.927c0,9.693,3.692,14.464,16.464,14.464c6.924,0,12.925-1.847,12.925-1.847V146.34z"/>
	<path fill="#060606" d="M370.977,174.805v-28.773c0-16.926,12.003-27.081,34.006-27.081s32.467,10.155,32.467,25.542
		c0,13.079-7.694,25.234-32.005,25.234c-4.925,0-9.848-0.923-14.464-2.771v5.54c0,9.231,5.539,14.002,17.079,14.002
		c15.233,0,25.542-6.463,25.696-15.695c3.231,4.616,4.77,8.771,4.77,12.618c0,11.078-12.771,18.464-30.466,18.464
		C384.672,201.886,370.977,191.73,370.977,174.805z M390.98,152.802c1.539,0.308,6.924,1.385,11.54,1.385
		c11.078,0,14.926-3.539,14.926-9.693c0-6.463-3.54-10.925-13.079-10.925c-10.464,0-13.387,5.385-13.387,14.771V152.802z"/>
	<path fill="#686868" d="M455.292,145.569c0-15.387,9.694-23.388,28.312-23.388c13.694,0,26.927,3.847,26.927,14.771
		c0,3.231-1.23,6.924-3.692,11.386c0.153-0.77,0.153-1.692,0.153-2.462c0-9.231-6.462-15.694-23.388-15.694
		c-15.079,0-19.849,5.386-19.849,14.618c0,22.311,49.545-1.231,49.545,34.466c0,13.232-10.001,22.619-29.696,22.619
		c-13.386,0-28.004-3.231-28.004-15.541c0-2.77,0.77-5.847,2.308-9.539c0,9.693,7.54,17.079,25.696,17.079
		c16.771,0,21.234-7.232,21.234-15.387C504.839,154.032,456.062,176.959,455.292,145.569z"/>
	<path fill="#686868" d="M579.614,86.176c1.385,0,8.463-0.154,8.463,8.155v106.477c-2.77-1.077-5.539-1.539-8.155-1.539
		c-6.309,0-14.002,2.616-21.695,2.616c-17.695,0-28.004-9.232-28.004-23.388v-32.929c0-14.617,11.539-23.233,25.08-23.233
		c21.542,0,26.004,9.54,26.004,9.54s-1.692-2.924-1.692-16.157V86.176z M579.614,146.34c0-9.541-11.232-16.003-22.311-16.003
		c-10.617,0-18.619,5.386-18.619,17.541v28.312c0,11.848,5.386,17.695,22.312,17.695c11.387,0,18.618-3.693,18.618-3.693V146.34z"/>
	<path fill="#686868" d="M669.007,200.501c0,0-2.615,0.615-4.001,0.615c-15.232,0-4.923-39.082-46.775-41.236v41.236
		c0,0-8.463,0-8.463-6.77V85.714c0,0,8.463,0,8.463,6.771v59.701c0.77,0,1.538,0,2.154,0c14.926,0,21.08-7.385,29.851-23.388
		c1.384-2.462,2.77-5.847,11.693-5.847c0.616,0,1.539,0.154,1.539,0.154c-5.231,8.155-15.54,32.159-31.082,32.313
		C660.391,160.495,664.084,193.73,669.007,200.501z"/>
</g>
</svg>
